HIERARCHY
ROOT Hips
{
 OFFSET 0.000000 0.000000 0.000000
 CHANNELS 6 Xposition Yposition Zposition Yrotation Xrotation Zrotation
 JOINT Chest
 {
  OFFSET 0.000000 9.585900 0.002600
  CHANNELS 3 Yrotation Xrotation Zrotation
  JOINT Chest2
  {
   OFFSET 0.000000 9.601200 -0.005300
   CHANNELS 3 Yrotation Xrotation Zrotation
   JOINT Chest3
   {
    OFFSET 0.000000 9.561800 0.000000
    CHANNELS 3 Yrotation Xrotation Zrotation
    JOINT Chest4
    {
     OFFSET 0.000000 9.552100 0.000000
     CHANNELS 3 Yrotation Xrotation Zrotation
     JOINT Neck
     {
      OFFSET 0.000000 14.453000 0.000000
      CHANNELS 3 Yrotation Xrotation Zrotation
      JOINT Head
      {
       OFFSET 0.000000 8.936500 -0.011300
       CHANNELS 3 Yrotation Xrotation Zrotation
       End Site
       {
        OFFSET 0.000000 17.073600 -0.006000
       }
      }
     }
     JOINT RightCollar
     {
      OFFSET -2.921100 9.558500 0.000000
      CHANNELS 3 Yrotation Xrotation Zrotation
      JOINT RightShoulder
      {
       OFFSET -13.519700 0.000000 0.000000
       CHANNELS 3 Yrotation Xrotation Zrotation
       JOINT RightElbow
       {
        OFFSET 0.000000 -29.696600 0.000000
        CHANNELS 3 Yrotation Xrotation Zrotation
        JOINT RightWrist
        {
         OFFSET 0.000000 -24.004700 0.000000
         CHANNELS 3 Yrotation Xrotation Zrotation
         End Site
         {
          OFFSET 0.000000 -17.728500 0.000000
         }
        }
       }
      }
     }
     JOINT LeftCollar
     {
      OFFSET 2.921100 9.558500 0.000000
      CHANNELS 3 Yrotation Xrotation Zrotation
      JOINT LeftShoulder
      {
       OFFSET 13.519700 0.000000 0.000000
       CHANNELS 3 Yrotation Xrotation Zrotation
       JOINT LeftElbow
       {
        OFFSET 0.000000 -29.696600 0.000000
        CHANNELS 3 Yrotation Xrotation Zrotation
        JOINT LeftWrist
        {
         OFFSET 0.000000 -24.004700 0.000000
         CHANNELS 3 Yrotation Xrotation Zrotation
         End Site
         {
          OFFSET 0.000000 -17.728500 0.000000
         }
        }
       }
      }
     }
    }
   }
  }
 }
 JOINT RightHip
 {
  OFFSET -7.771700 -0.012900 -0.001300
  CHANNELS 3 Yrotation Xrotation Zrotation
  JOINT RightKnee
  {
   OFFSET 0.000000 -40.869800 0.001200
   CHANNELS 3 Yrotation Xrotation Zrotation
   JOINT RightAnkle
   {
    OFFSET 0.000000 -39.717900 0.002100
    CHANNELS 3 Yrotation Xrotation Zrotation
    JOINT RightToe
    {
     OFFSET 0.000000 -4.965400 11.033500
     CHANNELS 3 Yrotation Xrotation Zrotation
     End Site
     {
      OFFSET 0.000000 -1.423100 5.872300
     }
    }
   }
  }
 }
 JOINT LeftHip
 {
  OFFSET 7.771700 -0.012900 -0.001300
  CHANNELS 3 Yrotation Xrotation Zrotation
  JOINT LeftKnee
  {
   OFFSET 0.000000 -40.869800 0.001200
   CHANNELS 3 Yrotation Xrotation Zrotation
   JOINT LeftAnkle
   {
    OFFSET 0.000000 -39.717900 0.002100
    CHANNELS 3 Yrotation Xrotation Zrotation
    JOINT LeftToe
    {
     OFFSET 0.000000 -4.965400 11.033500
     CHANNELS 3 Yrotation Xrotation Zrotation
     End Site
     {
      OFFSET 0.000000 -1.423100 5.872300
     }
    }
   }
  }
 }
}
MOTION
Frames: 16
Frame Time: 0.008333
0.000000 85.388000 0.000000 0.000000 -5.767877 0.000000 0.000000 11.653817 0.000000 0.000000 -5.885947 0.000000 0.000000 -0.000000 0.000000 0.000000 -0.000000 0.000000 0.000000 12.528835 0.000000 0.000000 0.711642 0.000000 0.000000 -0.000000 0.000000 0.000000 0.000000 -90.000000 0.000000 -2.309062 0.000000 0.000000 2.309062 0.000000 0.000000 -0.000000 0.000000 0.000000 -0.000000 90.000000 0.000000 -2.309062 0.000000 0.000000 2.309062 0.000000 0.000000 8.520406 0.000000 0.000000 1.905762 0.000000 -0.000000 -4.658285 0.000000 0.000000 -0.000000 0.000000 0.000000 8.520406 0.000000 0.000000 1.905762 0.000000 -0.000000 -4.658285 0.000000 0.000000 -0.000000 0.000000
-16.742209 60.372340 29.907259 161.745108 -17.575868 1.149641 0.462281 13.440025 0.148096 0.097066 1.108290 0.010715 0.165076 1.874618 0.030272 1.185953 12.140962 0.523502 3.562597 13.969478 -4.545206 4.950516 -10.928838 -5.638787 2.153958 6.582725 -4.486556 -31.862733 -15.686319 -10.484439 -89.095943 -50.758010 97.338282 -13.938642 -13.016631 -29.985865 -1.682844 1.443558 -2.996927 34.523924 -2.506095 0.444552 75.964639 -46.982583 -86.298929 -0.908058 -7.173246 -12.696330 -2.388068 -52.377704 3.501567 -26.576498 70.728492 -23.945241 -0.152499 -4.917605 -2.757660 1.288548 0.011719 0.763407 4.227506 -51.431535 2.712038 26.390926 67.205924 26.102634 -21.959493 -16.273197 0.035919 -0.651552 0.292928 -0.339202
-16.747803 60.378422 29.859682 161.742631 -17.635443 1.124158 0.465593 13.512979 0.139729 0.085948 1.117677 -0.024599 0.163136 1.870044 0.026156 1.139116 12.139621 0.414011 3.678748 14.181074 -4.338604 4.985763 -10.690121 -5.508019 2.173637 6.707349 -4.393270 -30.844938 -15.376474 -9.842538 -88.208506 -50.835609 96.085172 -14.051927 -12.920373 -30.122741 -2.051611 1.419821 -3.143745 34.264217 -2.809600 0.489484 75.784282 -47.356000 -86.147381 -0.943952 -7.085389 -12.834924 -2.508598 -52.283810 3.685261 -26.761750 70.708683 -24.295151 -0.106030 -4.993551 -2.679990 1.249004 0.034867 0.741970 4.244509 -51.383130 2.649107 26.555654 67.236350 26.363112 -21.982966 -16.294718 0.039656 -0.626342 0.288469 -0.346574
-16.751771 60.384044 29.813975 161.733528 -17.660189 1.068553 0.478884 13.564477 0.129667 0.068442 1.116936 -0.039685 0.165170 1.858853 0.040171 1.116298 12.127154 0.364277 3.745136 14.370840 -4.173700 4.999774 -10.488342 -5.361616 2.192720 6.815426 -4.330885 -29.771421 -15.105499 -9.251052 -87.448183 -50.929002 94.873051 -14.142226 -12.854555 -30.221087 -2.406846 1.421300 -3.332078 33.947153 -3.143546 0.490647 75.571292 -47.684219 -85.952451 -0.963240 -7.004489 -12.913837 -2.643618 -52.226899 3.894817 -26.901723 70.696244 -24.579264 -0.046147 -5.036553 -2.599052 1.186190 0.031853 0.708413 4.203659 -51.367965 2.684365 26.677254 67.272240 26.554776 -22.089516 -16.341107 0.030781 -0.562780 0.310571 -0.320281
-16.761958 60.386099 29.780526 161.676153 -17.586230 1.028011 0.498487 13.530051 0.071152 0.105084 1.087596 0.034770 0.147988 1.864413 0.010201 1.108906 12.113619 0.345114 3.774845 14.530265 -4.029084 4.993140 -10.323142 -5.207591 2.230100 6.860476 -4.276048 -28.681965 -14.837815 -8.705500 -86.813314 -51.058278 93.720325 -14.196130 -12.801572 -30.283851 -2.745411 1.433576 -3.533178 33.570912 -3.502015 0.450473 75.326540 -47.956648 -85.713002 -0.979609 -6.931907 -12.923002 -2.693895 -52.281668 4.052279 -26.974251 70.703765 -24.758260 0.103655 -5.062264 -2.492448 1.024551 0.026009 0.630669 4.219071 -51.446848 2.711033 26.772876 67.284399 26.694976 -22.195213 -16.342789 0.015323 -0.465432 0.317877 -0.263974
-16.780918 60.389341 29.744674 161.671764 -17.511813 1.020630 0.472196 13.483190 0.009496 0.125391 1.070312 0.067968 0.137239 1.866205 -0.002851 1.117311 12.103067 0.350229 3.758048 14.663665 -3.909505 4.967516 -10.190010 -5.052383 2.243129 6.900994 -4.252930 -27.578984 -14.615739 -8.152658 -86.294155 -51.236104 92.638155 -14.205953 -12.760743 -30.357495 -3.086193 1.447833 -3.749640 33.147374 -3.873577 0.376418 75.044181 -48.170304 -85.425711 -0.991585 -6.866116 -12.883901 -2.724206 -52.341789 4.115067 -26.997830 70.716911 -24.879374 0.151496 -5.079781 -2.404707 0.957351 0.011543 0.575872 4.264575 -51.523746 2.619187 26.902663 67.284040 26.886454 -22.259131 -16.335484 0.069263 -0.388374 0.316063 -0.282240
-16.794494 60.395927 29.703826 161.630179 -17.490031 1.003134 0.506954 13.472024 0.015932 0.104415 1.080306 0.037331 0.163569 1.850012 0.035154 1.105130 12.101942 0.330983 3.732157 14.771176 -3.780935 4.926087 -10.081651 -4.901082 2.262129 6.966177 -4.214205 -26.481135 -14.468842 -7.589941 -85.872944 -51.470673 91.632571 -14.182141 -12.726448 -30.459267 -3.409247 1.454844 -3.950859 32.689801 -4.245832 0.279813 74.723020 -48.329816 -85.100950 -0.995509 -6.808143 -12.804963 -2.704253 -52.349134 4.191304 -27.061865 70.723846 -25.019790 0.164899 -5.081383 -2.327392 0.919884 -0.018049 0.535175 4.296050 -51.546532 2.580137 27.046721 67.299600 27.100491 -22.331965 -16.356034 0.093254 -0.340503 0.316195 -0.280543
-16.809691 60.402362 29.667567 161.586598 -17.459493 0.989605 0.547143 13.451133 0.023848 0.094685 1.087202 0.019612 0.161103 1.846392 0.034218 1.089385 12.091746 0.323869 3.724883 14.859429 -3.635437 4.869333 -9.992082 -4.755717 2.346727 7.023229 -4.121145 -25.433320 -14.368421 -7.058999 -85.520918 -51.761590 90.705806 -14.139356 -12.691930 -30.574000 -3.701174 1.452142 -4.132209 32.205403 -4.612905 0.170506 74.380961 -48.441669 -84.758996 -0.994552 -6.759558 -12.675165 -2.515679 -52.382398 4.125389 -27.206259 70.740171 -25.134200 0.200714 -5.059603 -2.300736 0.860217 -0.066583 0.538524 4.306011 -51.579451 2.561726 27.166629 67.319883 27.279732 -22.426583 -16.375152 0.104382 -0.294698 0.315123 -0.266256
-16.824489 60.410397 29.630518 161.488389 -17.461014 0.996084 0.620022 13.470901 0.015701 0.087390 1.092674 0.013237 0.155890 1.844729 0.032531 1.098638 12.072614 0.333448 3.704639 14.936919 -3.499381 4.799335 -9.915902 -4.617954 2.436755 7.027612 -4.046297 -24.419195 -14.243194 -6.543056 -85.219724 -52.098898 89.855814 -14.085756 -12.653959 -30.689843 -3.995350 1.439844 -4.318280 31.697993 -4.974053 0.052852 74.032253 -48.513633 -84.408636 -0.991118 -6.719365 -12.497965 -2.316396 -52.384676 4.065844 -27.260163 70.765370 -25.173733 0.244673 -5.026445 -2.225033 0.793914 -0.119419 0.484052 4.272628 -51.572476 2.563405 27.313920 67.352133 27.489833 -22.384456 -16.415864 0.079487 -0.261927 0.307552 -0.261684
-16.843500 60.414357 29.609855 161.459815 -17.388686 0.979543 0.625260 13.429482 0.019599 0.109161 1.069483 0.021012 0.159086 1.840239 0.036098 1.079679 12.073881 0.335366 3.665684 15.006171 -3.376766 4.721462 -9.848173 -4.492005 2.517519 7.009639 -3.999629 -23.436813 -14.111944 -6.028395 -84.962638 -52.466383 89.072137 -14.031309 -12.606948 -30.798127 -4.289298 1.413206 -4.506447 31.155493 -5.321942 -0.071552 73.683563 -48.561139 -84.048697 -0.986994 -6.689843 -12.284834 -2.171331 -52.461497 3.995532 -27.308462 70.783596 -25.185481 0.284871 -4.996657 -2.161098 0.728794 -0.159426 0.449582 4.200959 -51.640951 2.592842 27.395685 67.358192 27.571738 -22.378313 -16.427684 0.095583 -0.200950 0.324598 -0.246961
-16.868078 60.417776 29.593453 161.445000 -17.312488 0.987586 0.613933 13.380060 0.014966 0.111591 1.058956 0.012287 0.158961 1.837565 0.038670 1.080659 12.065291 0.352253 3.620314 15.074834 -3.271568 4.639461 -9.785130 -4.383568 2.607422 6.985709 -3.970273 -22.482153 -13.985692 -5.529228 -84.752443 -52.844542 88.348748 -13.982189 -12.549195 -30.891450 -4.563122 1.368818 -4.693955 30.563073 -5.645596 -0.202324 73.344440 -48.602867 -83.677313 -0.978195 -6.672025 -12.043675 -1.999214 -52.539227 3.872191 -27.355612 70.791834 -25.186252 0.322818 -4.986987 -2.144196 0.674919 -0.175003 0.456940 4.137190 -51.711451 2.587971 27.548286 67.341724 27.691981 -22.389952 -16.414302 0.131845 -0.184475 0.327873 -0.245573
-16.882364 60.422106 29.580904 161.355615 -17.264470 0.957178 0.695456 13.360971 0.087185 0.092706 1.079085 0.027028 0.175561 1.806731 0.017476 1.068734 12.076373 0.437936 3.562019 15.127442 -3.253699 4.554357 -9.724703 -4.296072 2.708324 6.942048 -4.023783 -21.536632 -13.862611 -5.051765 -84.608021 -53.222467 87.694355 -13.938015 -12.482258 -30.970916 -4.810559 1.278732 -4.939982 29.923900 -5.943033 -0.339968 73.025063 -48.648074 -83.295548 -0.965855 -6.657037 -11.792470 -1.851039 -52.578911 3.852231 -27.390221 70.789736 -25.158112 0.401591 -4.989527 -2.110004 0.594732 -0.174550 0.406837 4.055423 -51.761002 2.683958 27.595124 67.356585 27.742479 -22.356069 -16.390407 0.136727 -0.148298 0.302904 -0.232839
-16.900947 60.426571 29.570942 161.328191 -17.224349 0.932380 0.713152 13.355362 0.145147 0.092657 1.077878 0.030351 0.170653 1.798483 0.011133 1.079682 12.075682 0.487948 3.494324 15.185280 -3.208723 4.468564 -9.667296 -4.229557 2.804360 6.905189 -4.046968 -20.595073 -13.739422 -4.593513 -84.548626 -53.599436 87.124133 -13.900212 -12.405371 -31.032148 -5.060010 1.188622 -5.133472 29.246614 -6.223033 -0.484761 72.724135 -48.694189 -82.910573 -0.949653 -6.647847 -11.533951 -1.762301 -52.607186 3.811464 -27.377269 70.784008 -25.099028 0.421625 -4.985466 -2.092300 0.574433 -0.183754 0.355158 3.943373 -51.806477 2.740952 27.627971 67.374572 27.777270 -22.293370 -16.381704 0.142199 -0.124400 0.291423 -0.232838
-16.923596 60.430243 29.566882 161.310374 -17.169564 0.920340 0.717381 13.341676 0.193991 0.093015 1.076876 0.034203 0.158360 1.829382 0.059079 1.091858 12.037730 0.488907 3.424664 15.237325 -3.182265 4.385614 -9.615422 -4.182821 2.902384 6.863139 -4.080988 -19.665801 -13.611068 -4.146134 -84.574050 -53.970563 86.650955 -13.868131 -12.325584 -31.063326 -5.293574 1.089791 -5.312585 28.536175 -6.490586 -0.635440 72.434973 -48.740368 -82.535399 -0.926670 -6.656718 -11.251368 -1.696866 -52.646211 3.769676 -27.367679 70.762782 -25.067668 0.466474 -4.989790 -2.057605 0.536676 -0.170444 0.331586 3.852470 -51.868454 2.766629 27.639117 67.384818 27.789049 -22.240837 -16.352273 0.148990 -0.096430 0.262014 -0.249529
-16.948261 60.433667 29.567526 161.290407 -17.107934 0.914246 0.723824 13.327855 0.243061 0.093740 1.075901 0.038396 0.159617 1.827714 0.066203 1.104900 12.031155 0.537290 3.355461 15.280767 -3.170260 4.306971 -9.572165 -4.152019 2.997456 6.816000 -4.119633 -18.759912 -13.479666 -3.706661 -84.670540 -54.320906 86.281206 -13.835752 -12.255979 -31.062045 -5.507383 0.979997 -5.473044 27.792758 -6.739940 -0.784824 72.161836 -48.786977 -82.181603 -0.894769 -6.681765 -10.944254 -1.654898 -52.687289 3.739482 -27.326462 70.731631 -25.018532 0.512889 -4.998720 -2.022288 0.503244 -0.145172 0.304302 3.789654 -51.938520 2.771754 27.637640 67.389444 27.795006 -22.205864 -16.315329 0.155753 -0.083064 0.260599 -0.208221
-16.973116 60.437467 29.571117 161.282937 -17.050100 0.901845 0.724198 13.323673 0.299084 0.094631 1.074941 0.042724 0.161284 1.826141 0.073609 1.120390 12.024449 0.587479 3.288913 15.313197 -3.167678 4.233709 -9.540208 -4.132287 3.092757 6.766910 -4.155600 -17.891867 -13.356001 -3.276253 -84.824104 -54.636642 86.009064 -13.800007 -12.197144 -31.027253 -5.703923 0.858064 -5.615510 27.019070 -6.973005 -0.924007 71.911620 -48.834569 -81.849546 -0.850113 -6.716877 -10.623120 -1.654387 -52.726697 3.734919 -27.316627 70.698330 -25.005323 0.546632 -5.002913 -1.999642 0.466688 -0.135139 0.263382 3.735240 -52.006322 2.764839 27.630886 67.388802 27.800533 -22.154531 -16.275848 0.163605 -0.103113 0.249862 -0.192214
